<svg width="312" height="312" viewBox="0 0 312 312" fill="none" xmlns="http://www.w3.org/2000/svg">
<g clip-path="url(#clip0)">
<path d="M151.593 1.00791L11.8823 68.4547C10.1303 69.3006 9.01758 71.0738 9.01758 73.019V238.981C9.01758 240.926 10.1309 242.699 11.8823 243.545L151.593 310.992C154.377 312.336 157.623 312.336 160.407 310.992L300.118 243.545C301.87 242.699 302.983 240.926 302.983 238.981V73.019C302.983 71.0738 301.869 69.3006 300.118 68.4547L160.407 1.00791C157.623 -0.335765 154.377 -0.335765 151.593 1.00791Z" fill="#FFE17D"/>
<path d="M9.86034 70.2445C9.32775 71.0556 9.01758 72.0105 9.01758 73.019V238.981C9.01758 240.926 10.1309 242.699 11.8823 243.545L151.593 310.991C152.985 311.664 154.492 311.999 156 311.999V140.795L9.86034 70.2445Z" fill="#FFC350"/>
<path d="M302.14 70.2445C302.672 71.0556 302.982 72.0105 302.982 73.019V238.981C302.982 240.926 301.869 242.699 300.118 243.545L160.407 310.991C159.015 311.664 157.508 312 156 312V140.795L302.14 70.2445Z" fill="#FFD164"/>
<path d="M50.8261 230.135C50.0888 230.135 49.3362 229.971 48.6287 229.63L27.0587 219.217C24.5346 217.999 23.4804 214.97 24.6979 212.451C25.9106 209.932 28.9495 208.882 31.4638 210.09L53.0339 220.504C55.5579 221.722 56.6121 224.751 55.3946 227.27C54.5238 229.081 52.7121 230.135 50.8261 230.135Z" fill="#FFE17D"/>
<path d="M70.6789 217.212C69.9415 217.212 69.189 217.048 68.4815 216.707L27.0878 196.726C24.5687 195.508 23.5096 192.479 24.7271 189.96C25.9398 187.446 28.9836 186.391 31.493 187.599L72.886 207.581C75.4052 208.798 76.4643 211.827 75.2468 214.346C74.3766 216.157 72.5649 217.212 70.6789 217.212Z" fill="#FFF6D8"/>
<path d="M252.616 94.071L105.962 23.2233L67.3035 41.9616L214.286 112.919L252.616 94.071Z" fill="#FF8087"/>
<path d="M214.286 112.919V167.889C214.286 169.757 216.239 170.983 217.922 170.171L249.751 154.806C251.503 153.96 252.616 152.187 252.616 150.241V94.0716L214.286 112.919Z" fill="#E6646E"/>
</g>
<defs>
<clipPath id="clip0">
<rect width="312" height="312" fill="white"/>
</clipPath>
</defs>
</svg>
